Coordinates
version=1
nRows=54
nColumns=12
inDegrees=yes

Units are S.I. units (second, meters, Newtons, ...)
Angles are in degrees

endheader
time	SC_y	SC_z	SC_x	AC_y	AC_z	AC_x	GH_y	GH_z	GH_yy	EL_x	PS_y
       0.0              -42.78          8.787          81.78          58.12         -4.142         -14.01         -38.34         -18.38         -30.42          73.95          25.09
   0.04177              -42.78           8.79          81.77          58.12         -4.142          -14.0         -38.34         -18.37         -30.42          73.95           25.1
   0.08353              -42.79          8.792          81.77          58.12         -4.143          -14.0         -38.34         -18.37         -30.42          73.95          25.12
    0.1253              -42.79          8.795          81.76          58.12         -4.143          -14.0         -38.34         -18.37         -30.43          73.95          25.14
    0.1671              -42.79          8.798          81.75          58.12         -4.144         -13.99         -38.34         -18.37         -30.43          73.95          25.16
    0.2088              -42.79          8.801          81.74          58.12         -4.144         -13.99         -38.35         -18.36         -30.43          73.94          25.18
    0.2506              -42.79          8.805          81.73          58.12         -4.145         -13.98         -38.35         -18.36         -30.43          73.94           25.2
    0.2924               -42.8          8.809          81.73          58.12         -4.145         -13.98         -38.35         -18.35         -30.43          73.94          25.22
    0.3341               -42.8          8.813          81.72          58.13         -4.146         -13.97         -38.35         -18.35         -30.44          73.94          25.24
    0.3759               -42.8          8.817           81.7          58.13         -4.147         -13.97         -38.36         -18.35         -30.44          73.93          25.27
    0.4177              -42.81          8.821          81.69          58.13         -4.148         -13.96         -38.36         -18.34         -30.44          73.93           25.3
    0.4594              -42.81          8.826          81.68          58.13         -4.149         -13.95         -38.36         -18.34         -30.45          73.93          25.33
    0.5012              -42.81          8.832          81.67          58.13          -4.15         -13.95         -38.37         -18.33         -30.45          73.93          25.36
     0.543              -42.82          8.838          81.65          58.13         -4.151         -13.94         -38.37         -18.33         -30.45          73.92          25.39
    0.5847              -42.82          8.844          81.64          58.14         -4.152         -13.93         -38.37         -18.32         -30.46          73.92          25.43
    0.6265              -42.83          8.851          81.62          58.14         -4.153         -13.92         -38.38         -18.31         -30.46          73.92          25.47
    0.6683              -42.83          8.858           81.6          58.14         -4.154         -13.91         -38.38          -18.3         -30.47          73.91          25.51
      0.71              -42.84          8.866          81.58          58.14         -4.156          -13.9         -38.39          -18.3         -30.47          73.91          25.56
    0.7518              -42.84          8.875          81.56          58.15         -4.157         -13.89         -38.39         -18.29         -30.48           73.9          25.62
    0.7936              -42.85          8.884          81.54          58.15         -4.159         -13.88          -38.4         -18.28         -30.48           73.9          25.67
    0.8353              -42.86          8.895          81.51          58.15         -4.161         -13.87          -38.4         -18.27         -30.49          73.89          25.74
    0.8771              -42.87          8.906          81.48          58.16         -4.163         -13.85         -38.41         -18.25          -30.5          73.88          25.81
    0.9189              -42.87          8.919          81.45          58.16         -4.165         -13.84         -38.42         -18.24         -30.51          73.88          25.88
    0.9606              -42.88          8.933          81.41          58.17         -4.168         -13.82         -38.43         -18.23         -30.51          73.87          25.97
     1.002              -42.89          8.949          81.37          58.17         -4.171          -13.8         -38.44         -18.21         -30.52          73.86          26.06
     1.044              -42.91          8.966          81.33          58.18         -4.174         -13.77         -38.45         -18.19         -30.54          73.85          26.17
     1.086              -42.92          8.986          81.28          58.18         -4.177         -13.75         -38.46         -18.17         -30.55          73.84          26.29
     1.128              -42.94          9.008          81.23          58.19         -4.181         -13.72         -38.48         -18.15         -30.56          73.82          26.42
     1.169              -42.95          9.033          81.16           58.2         -4.186         -13.69         -38.49         -18.12         -30.58          73.81          26.57
     1.211              -42.97          9.062          81.09          58.21         -4.191         -13.65         -38.51          -18.1          -30.6          73.79          26.74
     1.253               -43.0          9.094          81.01          58.22         -4.197         -13.61         -38.53         -18.06         -30.62          73.77          26.93
     1.295              -43.02          9.131          80.92          58.23         -4.204         -13.56         -38.55         -18.02         -30.64          73.75          27.16
     1.337              -43.05          9.174          80.81          58.25         -4.211         -13.51         -38.58         -17.98         -30.67          73.73          27.42
     1.378              -43.09          9.224          80.69          58.26          -4.22         -13.44         -38.61         -17.93          -30.7           73.7          27.71
      1.42              -43.13          9.282          80.54          58.28         -4.231         -13.37         -38.65         -17.87         -30.74          73.66          28.07
     1.462              -43.17          9.351          80.37           58.3         -4.243         -13.28         -38.69          -17.8         -30.78          73.62          28.48
     1.504              -43.23          9.433          80.16          58.33         -4.258         -13.17         -38.75         -17.71         -30.84          73.58          28.97
     1.545               -43.3          9.531          79.92          58.36         -4.276         -13.04         -38.81         -17.61          -30.9          73.52          29.56
     1.587              -43.38          9.649          79.62           58.4         -4.297         -12.89         -38.88         -17.49         -30.98          73.45          30.27
     1.629              -43.48          9.794          79.26          58.45         -4.323          -12.7         -38.98         -17.34         -31.07          73.37          31.14
     1.671              -43.61          9.973          78.81          58.51         -4.355         -12.47         -39.09         -17.16         -31.18          73.26          32.22
     1.712              -43.76           10.2          78.25          58.58         -4.395         -12.19         -39.23         -16.93         -31.33          73.13          33.56
     1.754              -43.95          10.48          77.55          58.68         -4.446         -11.82         -39.41         -16.64         -31.51          72.97          35.24
     1.796               -44.2          10.83          76.66          58.79          -4.51         -11.36         -39.63         -16.28         -31.74          72.76          37.39
     1.838              -44.52          11.29          75.52          58.94         -4.593         -10.77         -39.92         -15.81         -32.03           72.5          40.13
      1.88              -44.93          11.88          74.05          59.14         -4.698         -10.01          -40.3         -15.21         -32.41          72.16          43.66
     1.921              -45.45          12.63          72.18          59.39         -4.833         -9.045         -40.77         -14.44         -32.89          71.72          48.16
     1.963               -46.1          13.57          69.82           59.7         -5.003         -7.829         -41.37         -13.48          -33.5          71.17          53.81
     2.005               -46.9          14.71          66.95          60.08         -5.209         -6.346         -42.09          -12.3         -34.23           70.5          60.71
     2.047              -47.82          16.04          63.62          60.52         -5.449         -4.627         -42.94         -10.94         -35.09          69.73           68.7
     2.088              -48.82          17.48          60.02          60.99         -5.708         -2.766         -43.85         -9.458         -36.02          68.89          77.36
      2.13              -49.82          18.92          56.42          61.47         -5.968        -0.9046         -44.76         -7.982         -36.94          68.06          86.01
     2.172              -50.74          20.25          53.09          61.91         -6.207         0.8142         -45.61         -6.618          -37.8          67.28           94.0
     2.214              -51.54           21.4          50.22          62.29         -6.414          2.297         -46.33         -5.441         -38.53          66.62          100.9
